<svg version="1.1" xmlns="http://www.w3.org/2000/svg" viewBox="0 0 231.66755610314522 270.0575244268189" width="231.66755610314522" height="270.0575244268189" filter="invert(93%) hue-rotate(180deg)">
  <!-- svg-source:excalidraw -->
  
  <defs>
    <style class="style-fonts">
      @font-face {
        font-family: "Virgil";
        src: url("https://excalidraw.com/Virgil.woff2");
      }
      @font-face {
        font-family: "Cascadia";
        src: url("https://excalidraw.com/Cascadia.woff2");
      }
      @font-face {
        font-family: "Assistant";
        src: url("https://excalidraw.com/Assistant-Regular.woff2");
      }
    </style>
    
  </defs>
  <g transform="translate(109.12818323766328 206.7714294086668) rotate(0 -49.39205648464372 20.822141459212617)" stroke="none"><path fill="#a991f7" d="M 0.67,1.69 Q 0.67,1.69 -0.69,2.30 -2.06,2.91 -3.36,3.67 -4.67,4.43 -6.43,5.30 -8.20,6.17 -9.08,6.84 -9.97,7.52 -11.21,8.38 -12.46,9.23 -14.47,10.35 -16.48,11.47 -18.82,12.51 -21.15,13.55 -22.82,14.71 -24.50,15.87 -26.71,17.25 -28.92,18.62 -31.07,19.52 -33.22,20.41 -35.18,21.31 -37.14,22.20 -39.09,23.13 -41.05,24.06 -43.30,25.02 -45.56,25.99 -48.27,26.70 -50.99,27.41 -53.14,28.23 -55.30,29.05 -57.88,30.23 -60.46,31.40 -62.68,32.46 -64.89,33.52 -67.32,34.28 -69.74,35.04 -72.04,36.15 -74.34,37.26 -75.98,37.87 -77.61,38.48 -78.74,39.04 -79.87,39.61 -80.88,40.16 -81.88,40.72 -83.56,41.27 -85.23,41.82 -86.36,42.34 -87.50,42.85 -88.75,43.18 -89.99,43.51 -91.42,43.65 -92.84,43.80 -95.80,43.97 -98.77,44.13 -99.16,44.07 -99.56,44.01 -99.92,43.82 -100.28,43.63 -100.56,43.34 -100.84,43.05 -101.01,42.69 -101.18,42.32 -101.23,41.92 -101.27,41.52 -101.19,41.12 -101.10,40.73 -100.90,40.38 -100.69,40.03 -100.38,39.77 -100.08,39.51 -99.70,39.36 -99.33,39.21 -98.93,39.18 -98.52,39.16 -98.13,39.26 -97.74,39.37 -97.41,39.59 -97.07,39.82 -96.83,40.14 -96.58,40.46 -96.45,40.84 -96.32,41.22 -96.32,41.63 -96.31,42.03 -96.44,42.41 -96.57,42.80 -96.81,43.12 -97.05,43.44 -97.39,43.67 -97.72,43.90 -98.11,44.01 -98.50,44.12 -98.90,44.10 -99.30,44.08 -99.68,43.93 -100.05,43.78 -100.36,43.52 -100.67,43.26 -100.88,42.92 -101.09,42.58 -101.18,42.18 -101.27,41.79 -101.23,41.39 -101.19,40.98 -101.02,40.62 -100.85,40.25 -100.58,39.96 -100.30,39.66 -99.94,39.47 -99.59,39.28 -99.19,39.21 -98.79,39.14 -98.79,39.14 -98.79,39.14 -95.97,39.18 -93.15,39.22 -91.08,39.11 -89.01,38.99 -87.69,38.54 -86.38,38.09 -84.91,37.67 -83.44,37.25 -82.29,36.84 -81.14,36.43 -79.82,36.02 -78.50,35.61 -76.99,35.24 -75.48,34.88 -73.01,33.70 -70.54,32.51 -68.29,31.82 -66.04,31.12 -63.81,30.04 -61.57,28.97 -58.92,27.75 -56.26,26.54 -53.97,25.66 -51.68,24.78 -49.16,24.12 -46.65,23.46 -44.46,22.50 -42.27,21.54 -40.31,20.57 -38.36,19.60 -36.37,18.65 -34.38,17.69 -32.48,16.86 -30.58,16.02 -28.50,14.63 -26.41,13.24 -24.54,11.83 -22.66,10.42 -20.57,9.33 -18.48,8.24 -16.63,6.98 -14.79,5.71 -13.50,4.90 -12.21,4.08 -11.08,3.44 -9.95,2.80 -8.27,1.88 -6.60,0.96 -5.05,0.14 -3.50,-0.68 -2.09,-1.19 -0.67,-1.69 -0.46,-1.75 -0.25,-1.81 -0.03,-1.81 0.18,-1.81 0.40,-1.77 0.61,-1.72 0.81,-1.62 1.01,-1.52 1.17,-1.38 1.34,-1.23 1.47,-1.05 1.60,-0.87 1.68,-0.67 1.76,-0.46 1.79,-0.25 1.82,-0.03 1.80,0.18 1.78,0.40 1.70,0.61 1.63,0.82 1.51,1.00 1.39,1.18 1.22,1.33 1.06,1.48 0.87,1.59 0.67,1.69 0.67,1.69 L 0.67,1.69 Z"></path></g><g stroke-linecap="round"><g transform="translate(10.344070268375845 247.4472406313148) rotate(0 8.716245261995937 6.295066022552646)"><path d="M0.21 0.16 C3.12 2.11, 14.99 10.15, 17.95 12.14 M-0.34 -0.24 C2.5 1.73, 14.75 10.49, 17.78 12.61" stroke="#a991f7" stroke-width="4" fill="none"></path></g></g><mask></mask><g stroke-linecap="round"><g transform="translate(12.28101365993075 245.5102972397599) rotate(0 3.8738867831093557 -8.232009414107097)"><path d="M-0.2 -0.14 C1.14 -2.84, 6.95 -13.84, 8.25 -16.6 M0.7 -0.69 C1.98 -3.27, 7 -13.38, 8.08 -15.97" stroke="#a991f7" stroke-width="4" fill="none"></path></g></g><mask></mask><g transform="translate(96.99755730104698 162.4259339106743) rotate(0 35.349998474121094 20.839888709511797)"><text x="35.349998474121094" y="0" font-family="Cascadia, Segoe UI Emoji" font-size="17.366573924593208px" fill="#1e1e1e" text-anchor="middle" style="white-space: pre;" direction="ltr" dominant-baseline="text-before-edge">enough</text><text x="35.349998474121094" y="20.83988870951185" font-family="Cascadia, Segoe UI Emoji" font-size="17.366573924593208px" fill="#1e1e1e" text-anchor="middle" style="white-space: pre;" direction="ltr" dominant-baseline="text-before-edge">talking</text></g><g transform="translate(181.2597182230063 9.179109984181196) rotate(14.229591821213484 6.341368101159787 77.55980985264796)" stroke="none"><path fill="#a991f7" d="M 0.95,-1.23 Q 0.95,-1.23 4.57,1.59 8.20,4.42 12.02,7.92 15.85,11.41 19.51,16.65 23.18,21.88 25.83,26.05 28.48,30.22 30.20,34.32 31.93,38.43 33.23,43.31 34.53,48.18 35.09,53.12 35.65,58.06 35.59,61.61 35.54,65.17 34.36,68.53 33.17,71.90 30.63,75.36 28.09,78.83 25.55,81.17 23.01,83.52 19.51,84.88 16.01,86.24 10.19,86.24 4.36,86.24 -0.96,85.09 -6.28,83.93 -10.06,81.98 -13.84,80.02 -16.68,76.82 -19.52,73.61 -20.77,69.83 -22.02,66.05 -21.40,61.47 -20.78,56.90 -19.63,53.54 -18.48,50.18 -15.68,46.39 -12.87,42.60 -9.93,39.85 -7.00,37.09 -3.62,35.83 -0.24,34.57 2.62,34.07 5.48,33.56 8.00,33.92 10.52,34.28 13.97,36.49 17.43,38.70 20.29,41.36 23.15,44.01 25.00,47.22 26.86,50.43 28.45,53.43 30.04,56.44 31.32,60.63 32.60,64.81 33.43,70.28 34.25,75.75 34.60,80.62 34.95,85.48 33.96,91.60 32.98,97.72 31.43,103.41 29.87,109.10 27.50,114.39 25.13,119.68 21.88,125.85 18.62,132.03 15.53,136.65 12.44,141.28 9.98,144.39 7.53,147.50 5.93,149.38 4.32,151.26 2.24,153.71 0.17,156.16 -0.02,156.32 -0.22,156.47 -0.46,156.56 -0.69,156.64 -0.94,156.65 -1.19,156.65 -1.43,156.58 -1.67,156.50 -1.88,156.35 -2.08,156.20 -2.22,156.00 -2.37,155.79 -2.44,155.55 -2.51,155.31 -2.50,155.06 -2.49,154.81 -2.40,154.57 -2.32,154.34 -2.16,154.14 -2.00,153.95 -1.78,153.82 -1.57,153.68 -1.33,153.62 -1.08,153.57 -0.83,153.59 -0.58,153.61 -0.35,153.71 -0.12,153.81 0.05,153.98 0.24,154.15 0.36,154.37 0.48,154.59 0.53,154.84 0.57,155.09 0.54,155.34 0.50,155.58 0.39,155.81 0.27,156.03 0.09,156.21 -0.08,156.38 -0.30,156.49 -0.53,156.60 -0.78,156.63 -1.03,156.67 -1.27,156.62 -1.52,156.57 -1.74,156.44 -1.96,156.32 -2.12,156.13 -2.29,155.94 -2.38,155.71 -2.48,155.47 -2.50,155.22 -2.52,154.97 -2.45,154.73 -2.39,154.49 -2.25,154.28 -2.12,154.07 -2.12,154.07 -2.12,154.07 0.10,151.81 2.32,149.56 3.90,147.71 5.47,145.87 7.86,142.85 10.25,139.82 13.28,135.31 16.30,130.80 19.52,124.70 22.74,118.60 25.04,113.51 27.34,108.41 28.86,102.85 30.39,97.30 31.36,91.47 32.33,85.65 31.99,80.90 31.65,76.14 30.87,70.86 30.09,65.57 28.90,61.61 27.72,57.66 26.15,54.69 24.58,51.73 22.96,48.82 21.33,45.90 18.66,43.40 15.98,40.89 13.00,38.87 10.02,36.84 7.95,36.49 5.89,36.15 3.26,36.60 0.63,37.05 -2.32,38.05 -5.28,39.05 -8.02,41.62 -10.77,44.18 -13.39,47.63 -16.02,51.07 -17.10,54.18 -18.18,57.29 -18.85,61.33 -19.51,65.37 -18.50,68.67 -17.50,71.96 -15.03,74.85 -12.56,77.73 -9.13,79.55 -5.69,81.37 -0.65,82.49 4.39,83.61 9.77,83.68 15.15,83.76 18.21,82.65 21.28,81.54 23.63,79.39 25.97,77.25 28.33,74.10 30.69,70.96 31.79,68.02 32.89,65.08 32.93,61.72 32.98,58.35 32.45,53.62 31.92,48.88 30.67,44.18 29.42,39.49 27.78,35.59 26.14,31.70 23.51,27.60 20.87,23.50 17.39,18.52 13.90,13.54 10.14,10.17 6.38,6.79 2.71,4.01 -0.95,1.23 -1.08,1.10 -1.22,0.97 -1.31,0.81 -1.41,0.65 -1.47,0.47 -1.53,0.29 -1.54,0.10 -1.56,-0.08 -1.52,-0.26 -1.49,-0.45 -1.41,-0.62 -1.34,-0.79 -1.22,-0.94 -1.11,-1.09 -0.96,-1.21 -0.81,-1.32 -0.64,-1.40 -0.47,-1.48 -0.29,-1.52 -0.10,-1.55 0.08,-1.54 0.26,-1.53 0.44,-1.48 0.62,-1.43 0.79,-1.33 0.95,-1.23 0.95,-1.23 L 0.95,-1.23 Z"></path></g></svg>